<?xml version="1.0" encoding="UTF-8"?>
<svg version="1.1" xmlns="http://www.w3.org/2000/svg" width="500" height="500">
<path d="M0 0 C165 0 330 0 500 0 C500 165 500 330 500 500 C335 500 170 500 0 500 C0 335 0 170 0 0 Z " fill="#D0FEF9" transform="translate(0,0)"/>
<path d="M0 0 C1.30066406 0.19464844 2.60132813 0.38929688 3.94140625 0.58984375 C25.84079085 4.26511286 49.37941048 11.01945627 63 30 C63 30.66 63 31.32 63 32 C58.19586692 30.76585554 54.25185411 29.20934868 49.875 26.8125 C40.7210991 21.98277911 30.84606477 19.07963531 21 16 C20.76339157 16.85005615 20.76339157 16.85005615 20.52200317 17.71728516 C18.39423988 25.10077575 15.71465163 32.21745727 12.9296875 39.375 C12.4428252 40.63375437 11.9562687 41.89262706 11.47000122 43.15161133 C10.4586693 45.76781256 9.44494359 48.3830674 8.42919922 50.99755859 C7.12683788 54.349842 5.82867054 57.70372919 4.53202629 61.05822754 C3.29095084 64.26851611 2.04793331 67.47805145 0.8046875 70.6875 C0.3380368 71.8926123 -0.12861389 73.09772461 -0.60940552 74.33935547 C-1.04010345 75.44811035 -1.47080139 76.55686523 -1.91455078 77.69921875 C-2.4838884 79.16621216 -2.4838884 79.16621216 -3.06472778 80.6628418 C-4 83 -4 83 -5 85 C-6.89172363 84.72305298 -6.89172363 84.72305298 -9 84 C-10.36816105 81.18154195 -11.44434055 78.52994588 -12.46875 75.5859375 C-12.78614136 74.71582535 -13.10353271 73.8457132 -13.43054199 72.94923401 C-14.46814473 70.09615795 -15.48386755 67.23578493 -16.5 64.375 C-17.564267 61.43247226 -18.63404392 58.49198564 -19.70410156 55.55155945 C-20.42404368 53.57201438 -21.14213384 51.59179482 -21.85839844 49.61091614 C-25.34139564 39.99338855 -29.03246913 30.46224448 -32.78491211 20.94720459 C-33.50485262 19.12069955 -34.22128036 17.29281105 -34.9375 15.46484375 C-35.33839844 14.450271 -35.73929688 13.43569824 -36.15234375 12.39038086 C-37 10 -37 10 -37 8 C-46.9 8.99 -56.8 9.98 -67 11 C-68.73211093 15.45398809 -68.73211093 15.45398809 -70.46418762 19.9079895 C-71.9794354 23.80445588 -73.49484429 27.70085949 -75.01049805 31.59716797 C-78.01670235 39.32569718 -81.02194351 47.05459371 -84.02197266 54.78552246 C-85.30882962 58.101544 -86.59637561 61.41729781 -87.88397217 64.73303223 C-88.50268585 66.32689203 -89.12105373 67.92088612 -89.73907471 69.51501465 C-90.60252756 71.74211787 -91.46715184 73.96876296 -92.33203125 76.1953125 C-92.58869064 76.8582431 -92.84535004 77.52117371 -93.10978699 78.20419312 C-94.00674706 80.51082625 -94.89249718 82.78499435 -96 85 C-97.86962891 84.79614258 -97.86962891 84.79614258 -100 84 C-101.14990234 81.97924805 -101.14990234 81.97924805 -102.0859375 79.26171875 C-102.45283691 78.23046875 -102.81973633 77.19921875 -103.19775391 76.13671875 C-103.58624512 74.99847656 -103.97473633 73.86023438 -104.375 72.6875 C-105.2412811 70.24216212 -106.11078563 67.79818488 -106.984375 65.35546875 C-107.33255783 64.37506119 -107.33255783 64.37506119 -107.68777466 63.37484741 C-109.61611242 57.97773616 -111.67016099 52.63499691 -113.765625 47.30078125 C-114.08532257 46.48655197 -114.40502014 45.67232269 -114.73440552 44.8334198 C-116.0145562 41.57875937 -117.29766107 38.32530404 -118.58709717 35.0743103 C-119.49203732 32.79078658 -120.39094812 30.50496506 -121.2890625 28.21875 C-121.56357239 27.53238968 -121.83808228 26.84602936 -122.12091064 26.13887024 C-123.24715109 23.26264612 -124 21.11994999 -124 18 C-125.85238281 18.19916016 -125.85238281 18.19916016 -127.7421875 18.40234375 C-143.72003501 20.0864006 -159.52949462 21.08338439 -175.60089111 21.17523193 C-177.58211085 21.18724005 -179.56327834 21.20705906 -181.54443359 21.22705078 C-188.09087605 21.23302615 -193.73951565 20.91312407 -200 19 C-201.72666966 18.67398545 -203.4555462 18.35916419 -205.1875 18.0625 C-208.98817179 17.33047539 -211.83137208 16.32366047 -215 14 C-214.67 13.01 -214.34 12.02 -214 11 C-210.33556933 10.15590811 -206.94532295 9.86514987 -203.1875 9.875 C-201.72376953 9.87113281 -201.72376953 9.87113281 -200.23046875 9.8671875 C-197 10 -197 10 -193.37890625 10.49609375 C-160.69847919 14.81990603 -126.25803227 8.11096263 -93.99472046 3.30957031 C-86.81581233 2.24869498 -79.62931859 1.26021929 -72.43359375 0.3203125 C-71.01774239 0.13493675 -71.01774239 0.13493675 -69.57328796 -0.05418396 C-46.67766401 -3.00613018 -22.84585864 -3.61976287 0 0 Z " fill="#4BAAAF" transform="translate(325,260)"/>
<path d="M0 0 C1.95556641 0.22045898 1.95556641 0.22045898 4 1 C5.33275243 3.70506145 6.38081706 6.23412618 7.375 9.0625 C7.67317627 9.87090332 7.97135254 10.67930664 8.27856445 11.51220703 C8.89556817 13.18732875 9.50626976 14.86478441 10.11083984 16.54443359 C10.93340647 18.81609067 11.78118292 21.07561209 12.64453125 23.33203125 C14.91232198 29.26453782 17.10064942 35.20750021 19.0625 41.25 C21.3438695 48.22608854 24.23042438 54.91914194 27.1484375 61.6484375 C31.53852344 71.93125624 35.23175769 82.4775731 39 93 C29.32585494 94.97456876 19.88033584 96.45432537 10 97 C9.76289307 96.36908447 9.52578613 95.73816895 9.28149414 95.08813477 C8.21129388 92.24519405 7.13695457 89.40383542 6.0625 86.5625 C5.68931641 85.56927734 5.31613281 84.57605469 4.93164062 83.55273438 C4.57392578 82.60849609 4.21621094 81.66425781 3.84765625 80.69140625 C3.51773682 79.81685791 3.18781738 78.94230957 2.84790039 78.04125977 C2.17007683 76.04282248 2.17007683 76.04282248 1 75 C0.7326001 75.7520874 0.4652002 76.5041748 0.18969727 77.27905273 C-1.01644061 80.66625281 -2.22690977 84.05188879 -3.4375 87.4375 C-3.85837891 88.62150391 -4.27925781 89.80550781 -4.71289062 91.02539062 C-5.31713867 92.71245117 -5.31713867 92.71245117 -5.93359375 94.43359375 C-6.30540771 95.47572021 -6.67722168 96.51784668 -7.06030273 97.59155273 C-8 100 -8 100 -9 101 C-10.8613519 101.36960487 -12.73387365 101.68328908 -14.609375 101.97265625 C-15.75664062 102.14990234 -16.90390625 102.32714844 -18.0859375 102.50976562 C-19.29507813 102.69216797 -20.50421875 102.87457031 -21.75 103.0625 C-22.94367188 103.24876953 -24.13734375 103.43503906 -25.3671875 103.62695312 C-30.30094625 104.38026193 -35.00513241 105.04734799 -40 105 C-37.98339019 97.88881914 -35.57763224 91.00987178 -32.89453125 84.125 C-32.4977417 83.09748123 -32.10095215 82.06996246 -31.69213867 81.01130676 C-30.40228748 77.67289324 -29.10742188 74.33644954 -27.8125 71 C-26.00885867 66.33784133 -24.20760502 61.67476119 -22.40625 57.01171875 C-21.95329056 55.84025803 -21.50033112 54.6687973 -21.03364563 53.46183777 C-18.05020409 45.74021066 -15.0920986 38.00937303 -12.15625 30.26953125 C-11.78336349 29.28693329 -11.41047699 28.30433533 -11.02629089 27.29196167 C-9.6061786 23.54806686 -8.18684174 19.80389109 -6.77236938 16.05786133 C-5.81529513 13.52340995 -4.85516306 10.99013584 -3.89453125 8.45703125 C-3.61319336 7.70855423 -3.33185547 6.96007721 -3.04199219 6.18891907 C-1.11341501 1.11341501 -1.11341501 1.11341501 0 0 Z " fill="#4034AF" transform="translate(180,155)"/>
<path d="M0 0 C1.95556641 0.22045898 1.95556641 0.22045898 4 1 C5.3317514 3.70302966 6.38201831 6.23578089 7.375 9.0625 C7.77332031 10.14241211 7.77332031 10.14241211 8.1796875 11.24414062 C8.77319629 12.85568186 9.36026721 14.46960149 9.94262695 16.08520508 C14.63480452 29.01984095 19.61460954 41.8492283 24.5625 54.6875 C25.21555911 56.38343878 25.86855412 58.07940224 26.52148438 59.77539062 C26.84079926 60.60459015 27.16011414 61.43378967 27.48910522 62.28811646 C28.11706203 63.9192345 28.74469396 65.55047765 29.37197876 67.18185425 C30.76445149 70.80158906 32.16160607 74.41919402 33.57763672 78.02978516 C34.2643042 79.78814697 34.2643042 79.78814697 34.96484375 81.58203125 C35.36179443 82.59112549 35.75874512 83.60021973 36.16772461 84.63989258 C37 87 37 87 37 89 C22.15 88.505 22.15 88.505 7 88 C3 79 3 79 3 76 C2.34 76 1.68 76 1 76 C0.79503906 76.69867188 0.59007812 77.39734375 0.37890625 78.1171875 C0.10949219 79.02726562 -0.15992188 79.93734375 -0.4375 80.875 C-0.70433594 81.77992188 -0.97117187 82.68484375 -1.24609375 83.6171875 C-2 86 -2 86 -3 88 C-4.88256836 88.41064453 -4.88256836 88.41064453 -7.33984375 88.6328125 C-8.23896484 88.71660156 -9.13808594 88.80039063 -10.06445312 88.88671875 C-11.01255859 88.96535156 -11.96066406 89.04398437 -12.9375 89.125 C-13.85080078 89.21136719 -14.76410156 89.29773438 -15.70507812 89.38671875 C-21.819502 89.931954 -27.86429593 90.08487026 -34 90 C-31.97803371 82.89361294 -29.58781088 75.99997458 -26.9375 69.10546875 C-26.5492807 68.08688782 -26.1610614 67.06830688 -25.76107788 66.01885986 C-24.51072601 62.74045302 -23.25547945 59.46394623 -22 56.1875 C-21.1398096 53.93575319 -20.27994757 51.68388091 -19.42041016 49.43188477 C-18.14015378 46.07793334 -16.85958368 42.72410501 -15.57754517 39.37083435 C-13.14911619 33.01827828 -10.73259457 26.66148436 -8.3359375 20.296875 C-8.07379456 19.60149124 -7.81165161 18.90610748 -7.54156494 18.18965149 C-6.3700149 15.08147051 -5.20074279 11.972486 -4.03515625 8.86206055 C-3.63941406 7.8131665 -3.24367188 6.76427246 -2.8359375 5.68359375 C-2.50126465 4.79212646 -2.1665918 3.90065918 -1.82177734 2.98217773 C-1 1 -1 1 0 0 Z " fill="#4035AF" transform="translate(271,155)"/>
<path d="M0 0 C1.25159912 0.00523682 2.50319824 0.01047363 3.79272461 0.01586914 C4.78942421 0.01799156 4.78942421 0.01799156 5.80625916 0.02015686 C7.93590735 0.02577021 10.06545175 0.03832485 12.19506836 0.05102539 C13.63582205 0.05603868 15.07657739 0.06060188 16.51733398 0.06469727 C20.05577938 0.07574394 23.59416375 0.09301747 27.13256836 0.11352539 C24.89346831 8.1862828 21.99226655 15.94013231 18.94506836 23.73852539 C18.24994141 25.5309668 18.24994141 25.5309668 17.54077148 27.35961914 C16.40808241 30.27892089 15.27195187 33.19683143 14.13256836 36.11352539 C8.82066739 35.50248319 4.0173745 34.28048046 -1.05493164 32.61352539 C-6.91778325 30.71377118 -6.91778325 30.71377118 -12.86743164 29.11352539 C-11.54436455 22.51813568 -9.68314305 16.39984915 -7.30493164 10.11352539 C-6.9884668 9.25629883 -6.67200195 8.39907227 -6.34594727 7.51586914 C-3.5940018 0.14229126 -3.5940018 0.14229126 0 0 Z " fill="#4034AF" transform="translate(340.867431640625,218.886474609375)"/>
</svg>
